<?xml version="1.0" encoding="UTF-8"?>
<svg id="_Шар_1" data-name="Шар 1" xmlns="http://www.w3.org/2000/svg" viewBox="0 0 1400 800">
  <defs>
    <style>
      .cls-1 {
        fill: #ffd84d;
      }

      .cls-2 {
        fill: none;
        stroke: #ffd84d;
        stroke-miterlimit: 10;
        stroke-width: 1.75px;
      }
    </style>
  </defs>
  <g>
    <path class="cls-1" d="M476.9,378.03v49.43h-7.91v-56.53h45.95v7.11h-38.04Z"/>
    <path class="cls-1" d="M583.34,399.1c0,5.22-.81,9.73-2.42,13.53s-3.88,6.93-6.78,9.41c-2.91,2.48-6.38,4.29-10.42,5.45s-8.48,1.74-13.33,1.74-9.29-.63-13.33-1.9-7.51-3.15-10.42-5.65c-2.91-2.5-5.17-5.63-6.78-9.37s-2.42-8.12-2.42-13.12.81-9.6,2.42-13.45c1.62-3.85,3.88-7.07,6.78-9.65,2.91-2.58,6.38-4.52,10.42-5.81s8.48-1.94,13.33-1.94,9.29.67,13.33,2.02,7.51,3.31,10.42,5.9c2.91,2.58,5.17,5.79,6.78,9.61,1.62,3.82,2.42,8.24,2.42,13.25ZM525.84,399.35c0,3.71.58,6.99,1.74,9.81,1.16,2.83,2.8,5.2,4.93,7.11,2.13,1.91,4.71,3.37,7.75,4.36,3.04,1,6.42,1.49,10.14,1.49s7.09-.48,10.14-1.45c3.04-.97,5.63-2.41,7.75-4.32,2.13-1.91,3.77-4.28,4.93-7.11,1.16-2.83,1.74-6.12,1.74-9.89s-.58-7.04-1.74-9.97c-1.16-2.93-2.8-5.44-4.93-7.51-2.13-2.07-4.71-3.66-7.75-4.76-3.04-1.1-6.42-1.66-10.14-1.66s-7.09.52-10.14,1.57c-3.04,1.05-5.63,2.58-7.75,4.6-2.13,2.02-3.77,4.51-4.93,7.47-1.16,2.96-1.74,6.38-1.74,10.26Z"/>
    <path class="cls-1" d="M651.34,370.92v56.53h-7.83v-49.43h-32.14l-1.78,26.01c-.38,5.22-1.18,9.38-2.42,12.48-1.24,3.1-2.8,5.45-4.68,7.07-1.89,1.62-4.05,2.67-6.5,3.15-2.45.48-5.05.73-7.79.73v-7.43c2.75,0,4.94-.36,6.58-1.09,1.64-.73,2.93-1.78,3.88-3.15.94-1.37,1.6-3.06,1.98-5.05.38-1.99.7-4.25.97-6.78l2.5-33.03h47.25Z"/>
    <path class="cls-1" d="M725.32,399.1c0,5.22-.81,9.73-2.42,13.53s-3.88,6.93-6.78,9.41c-2.91,2.48-6.38,4.29-10.42,5.45-4.04,1.16-8.48,1.74-13.33,1.74s-9.29-.63-13.33-1.9-7.51-3.15-10.42-5.65c-2.91-2.5-5.17-5.63-6.78-9.37s-2.42-8.12-2.42-13.12.81-9.6,2.42-13.45c1.62-3.85,3.88-7.07,6.78-9.65,2.91-2.58,6.38-4.52,10.42-5.81s8.48-1.94,13.33-1.94,9.29.67,13.33,2.02c4.04,1.35,7.51,3.31,10.42,5.9,2.91,2.58,5.17,5.79,6.78,9.61,1.62,3.82,2.42,8.24,2.42,13.25ZM667.82,399.35c0,3.71.58,6.99,1.74,9.81,1.16,2.83,2.8,5.2,4.93,7.11,2.13,1.91,4.71,3.37,7.75,4.36,3.04,1,6.42,1.49,10.14,1.49s7.09-.48,10.14-1.45c3.04-.97,5.62-2.41,7.75-4.32,2.13-1.91,3.77-4.28,4.93-7.11,1.16-2.83,1.74-6.12,1.74-9.89s-.58-7.04-1.74-9.97c-1.16-2.93-2.8-5.44-4.93-7.51-2.13-2.07-4.71-3.66-7.75-4.76-3.04-1.1-6.42-1.66-10.14-1.66s-7.09.52-10.14,1.57c-3.04,1.05-5.63,2.58-7.75,4.6-2.13,2.02-3.77,4.51-4.93,7.47-1.16,2.96-1.74,6.38-1.74,10.26Z"/>
    <path class="cls-1" d="M792.67,410.98c0,5.87-1.85,10.08-5.53,12.64-3.69,2.56-9.08,3.84-16.19,3.84h-37.55v-56.53h35.29c3.18,0,6.04.2,8.6.61,2.56.4,4.75,1.13,6.58,2.18,1.83,1.05,3.24,2.45,4.24,4.2.99,1.75,1.49,4,1.49,6.74,0,2.91-.62,5.29-1.86,7.15-1.24,1.86-2.83,3.35-4.77,4.48,3.18,1.13,5.59,2.81,7.23,5.05,1.64,2.24,2.46,5.45,2.46,9.65ZM741.31,393.45h26.65c2.31,0,4.31-.11,5.98-.32,1.67-.21,3.03-.62,4.08-1.21,1.05-.59,1.83-1.41,2.34-2.46s.77-2.38.77-4-.28-2.92-.85-3.92c-.57-1-1.4-1.75-2.5-2.26-1.11-.51-2.49-.85-4.16-1.01-1.67-.16-3.61-.24-5.81-.24h-26.49v15.43ZM741.31,420.35h29.64c2.75,0,4.98-.23,6.7-.69,1.72-.46,3.05-1.13,4-2.02.94-.89,1.59-1.95,1.94-3.19.35-1.24.53-2.61.53-4.12s-.16-2.93-.48-4.12c-.32-1.18-.97-2.21-1.94-3.07-.97-.86-2.33-1.51-4.08-1.94-1.75-.43-4.05-.65-6.9-.65h-29.4v19.79Z"/>
    <path class="cls-1" d="M810.93,400.4v27.06h-7.91v-56.53h7.91v22.37h42.16v-22.37h7.91v56.53h-7.91v-27.06h-42.16Z"/>
    <path class="cls-1" d="M884.74,410.33l-8.48,17.12h-8.8l27.86-56.53h13.41l27.86,56.53h-8.88l-8.4-17.12h-34.57ZM888.21,403.22h27.62l-13.81-27.94-13.81,27.94Z"/>
  </g>
  <path class="cls-2" d="M-35.81,48.98c68.18,0,68.18,55.81,136.36,55.81s68.18-55.81,136.36-55.81,68.18,55.81,136.36,55.81,68.18-55.81,136.36-55.81,68.18,55.81,136.36,55.81,68.18-55.81,136.36-55.81,68.18,55.81,136.36,55.81,68.18-55.81,136.36-55.81,68.18,55.81,136.36,55.81,68.18-55.81,136.37-55.81,68.18,55.81,136.37,55.81"/>
  <path class="cls-2" d="M-35.81,141.84c68.18,0,68.18,55.81,136.36,55.81s68.18-55.81,136.36-55.81,68.18,55.81,136.36,55.81,68.18-55.81,136.36-55.81,68.18,55.81,136.36,55.81,68.18-55.81,136.36-55.81,68.18,55.81,136.36,55.81,68.18-55.81,136.36-55.81,68.18,55.81,136.36,55.81,68.18-55.81,136.37-55.81,68.18,55.81,136.37,55.81"/>
  <path class="cls-2" d="M1539.19,751.29c-68.75,0-68.75-58.55-137.5-58.55-68.75,0-68.75,58.55-137.5,58.55-68.75,0-68.75-58.55-137.5-58.55-68.75,0-68.75,58.55-137.5,58.55-68.75,0-68.75-58.55-137.49-58.55s-68.75,58.55-137.5,58.55c-68.75,0-68.75-58.55-137.5-58.55-68.75,0-68.75,58.55-137.5,58.55-68.75,0-68.75-58.55-137.5-58.55-68.75,0-68.75,58.55-137.5,58.55-68.75,0-68.75-58.55-137.51-58.55s-68.75,58.55-137.51,58.55"/>
  <path class="cls-2" d="M1539.19,658.43c-68.75,0-68.75-58.55-137.5-58.55-68.75,0-68.75,58.55-137.5,58.55-68.75,0-68.75-58.55-137.5-58.55-68.75,0-68.75,58.55-137.5,58.55-68.75,0-68.75-58.55-137.49-58.55s-68.75,58.55-137.5,58.55c-68.75,0-68.75-58.55-137.5-58.55-68.75,0-68.75,58.55-137.5,58.55-68.75,0-68.75-58.55-137.5-58.55-68.75,0-68.75,58.55-137.5,58.55-68.75,0-68.75-58.55-137.51-58.55s-68.75,58.55-137.51,58.55"/>
</svg>