<?xml version="1.0" encoding="UTF-8"?>
<svg id="_Шар_1" data-name="Шар 1" xmlns="http://www.w3.org/2000/svg" viewBox="0 0 1400 800">
  <defs>
    <style>
      .cls-1 {
        fill: #ffd84d;
      }

      .cls-2 {
        fill: none;
        stroke: #ffd84d;
        stroke-miterlimit: 10;
        stroke-width: 1.75px;
      }
    </style>
  </defs>
  <g>
    <path class="cls-1" d="M409.27,378.23v48.95h-7.84v-55.99h53.59v55.99h-7.84v-48.95h-37.91Z"/>
    <path class="cls-1" d="M528.28,399.1c0,5.17-.8,9.64-2.4,13.4-1.6,3.76-3.84,6.87-6.72,9.32-2.88,2.45-6.32,4.25-10.32,5.4s-8.4,1.72-13.2,1.72-9.2-.63-13.2-1.88c-4-1.25-7.44-3.12-10.32-5.6s-5.12-5.57-6.72-9.28c-1.6-3.71-2.4-8.04-2.4-13s.8-9.5,2.4-13.32c1.6-3.81,3.84-7,6.72-9.56s6.32-4.48,10.32-5.76c4-1.28,8.4-1.92,13.2-1.92s9.2.67,13.2,2c4,1.33,7.44,3.28,10.32,5.84,2.88,2.56,5.12,5.73,6.72,9.52,1.6,3.79,2.4,8.16,2.4,13.12ZM471.33,399.34c0,3.68.57,6.92,1.72,9.72,1.15,2.8,2.77,5.15,4.88,7.04,2.11,1.89,4.67,3.33,7.68,4.32,3.01.99,6.36,1.48,10.04,1.48s7.02-.48,10.04-1.44c3.01-.96,5.57-2.39,7.68-4.28,2.11-1.89,3.73-4.24,4.88-7.04,1.15-2.8,1.72-6.07,1.72-9.8s-.57-6.97-1.72-9.88c-1.15-2.91-2.77-5.39-4.88-7.44-2.11-2.05-4.67-3.63-7.68-4.72-3.01-1.09-6.36-1.64-10.04-1.64s-7.03.52-10.04,1.56c-3.01,1.04-5.57,2.56-7.68,4.56-2.11,2-3.73,4.47-4.88,7.4-1.15,2.93-1.72,6.32-1.72,10.16Z"/>
    <path class="cls-1" d="M544.12,406.7v20.48h-7.84v-55.99h37.11c2.93,0,5.6.39,8,1.16,2.4.77,4.44,1.92,6.12,3.44s2.99,3.43,3.92,5.72c.93,2.29,1.4,4.96,1.4,8-.11,2.93-.64,5.49-1.6,7.68-.96,2.19-2.28,3.97-3.96,5.36-1.68,1.39-3.69,2.43-6.04,3.12-2.35.69-4.96,1.04-7.84,1.04h-29.27ZM544.12,399.66h28.95c3.47,0,6.24-.91,8.32-2.72,2.08-1.81,3.12-4.45,3.12-7.92s-1.04-6.06-3.12-7.96c-2.08-1.89-4.85-2.84-8.32-2.84h-28.95v21.44Z"/>
    <path class="cls-1" d="M628.5,378.23v48.95h-7.84v-48.95h-24.87v-7.04h57.67v7.04h-24.95Z"/>
    <path class="cls-1" d="M726.71,396.22c0,4.53-.79,8.45-2.36,11.76-1.57,3.31-3.72,6.03-6.44,8.16-2.72,2.13-5.92,3.69-9.6,4.68-3.68.99-7.65,1.45-11.92,1.4v4.96h-7.92v-4.96c-4.27.05-8.24-.41-11.92-1.4-3.68-.99-6.89-2.53-9.64-4.64-2.75-2.11-4.91-4.83-6.48-8.16-1.57-3.33-2.36-7.26-2.36-11.8v-1.12c0-3.79.65-7.21,1.96-10.28,1.31-3.07,3.24-5.7,5.8-7.92,2.56-2.21,5.73-3.92,9.52-5.12,3.79-1.2,8.16-1.83,13.12-1.88h7.92c4.96.05,9.33.69,13.12,1.92,3.79,1.23,6.94,2.93,9.48,5.12,2.53,2.19,4.45,4.81,5.76,7.88,1.31,3.07,1.96,6.49,1.96,10.28v1.12ZM666.41,395.66c0,3.73.6,6.85,1.8,9.36,1.2,2.51,2.81,4.53,4.84,6.08,2.03,1.55,4.37,2.65,7.04,3.32,2.67.67,5.46,1,8.4,1v-38.79c-6.77,0-12.13,1.6-16.08,4.8-3.95,3.2-5.95,7.95-6,14.24ZM718.4,395.66c-.05-6.24-2.04-10.96-5.96-14.16-3.92-3.2-9.27-4.82-16.04-4.88v38.79c2.93,0,5.73-.33,8.4-1,2.67-.67,5.01-1.77,7.04-3.32,2.03-1.55,3.63-3.57,4.8-6.08,1.17-2.51,1.76-5.63,1.76-9.36Z"/>
    <path class="cls-1" d="M798.38,399.1c0,5.17-.8,9.64-2.4,13.4-1.6,3.76-3.84,6.87-6.72,9.32-2.88,2.45-6.32,4.25-10.32,5.4-4,1.15-8.4,1.72-13.2,1.72s-9.2-.63-13.2-1.88-7.44-3.12-10.32-5.6c-2.88-2.48-5.12-5.57-6.72-9.28-1.6-3.71-2.4-8.04-2.4-13s.8-9.5,2.4-13.32c1.6-3.81,3.84-7,6.72-9.56s6.32-4.48,10.32-5.76,8.4-1.92,13.2-1.92,9.2.67,13.2,2c4,1.33,7.44,3.28,10.32,5.84,2.88,2.56,5.12,5.73,6.72,9.52,1.6,3.79,2.4,8.16,2.4,13.12ZM741.43,399.34c0,3.68.57,6.92,1.72,9.72,1.15,2.8,2.77,5.15,4.88,7.04,2.11,1.89,4.67,3.33,7.68,4.32,3.01.99,6.36,1.48,10.04,1.48s7.03-.48,10.04-1.44c3.01-.96,5.57-2.39,7.68-4.28,2.11-1.89,3.73-4.24,4.88-7.04,1.15-2.8,1.72-6.07,1.72-9.8s-.57-6.97-1.72-9.88c-1.15-2.91-2.77-5.39-4.88-7.44-2.11-2.05-4.67-3.63-7.68-4.72-3.01-1.09-6.36-1.64-10.04-1.64s-7.03.52-10.04,1.56c-3.01,1.04-5.57,2.56-7.68,4.56-2.11,2-3.73,4.47-4.88,7.4-1.15,2.93-1.72,6.32-1.72,10.16Z"/>
    <path class="cls-1" d="M865.72,371.19v55.99h-7.76v-48.95h-31.83l-1.76,25.75c-.37,5.17-1.17,9.29-2.4,12.36-1.23,3.07-2.77,5.4-4.64,7-1.87,1.6-4.01,2.64-6.44,3.12-2.43.48-5,.72-7.72.72v-7.36c2.72,0,4.89-.36,6.52-1.08,1.63-.72,2.91-1.76,3.84-3.12.93-1.36,1.59-3.03,1.96-5,.37-1.97.69-4.21.96-6.72l2.48-32.71h46.79Z"/>
    <path class="cls-1" d="M926.91,420.14v7.04h-51.59v-7.04h21.67v-41.91h-21.67v-7.04h51.59v7.04h-22.08v41.91h22.08Z"/>
    <path class="cls-1" d="M998.57,399.1c0,5.17-.8,9.64-2.4,13.4-1.6,3.76-3.84,6.87-6.72,9.32-2.88,2.45-6.32,4.25-10.32,5.4-4,1.15-8.4,1.72-13.2,1.72s-9.2-.63-13.2-1.88-7.44-3.12-10.32-5.6-5.12-5.57-6.72-9.28c-1.6-3.71-2.4-8.04-2.4-13s.8-9.5,2.4-13.32c1.6-3.81,3.84-7,6.72-9.56s6.32-4.48,10.32-5.76,8.4-1.92,13.2-1.92,9.2.67,13.2,2c4,1.33,7.44,3.28,10.32,5.84,2.88,2.56,5.12,5.73,6.72,9.52,1.6,3.79,2.4,8.16,2.4,13.12ZM941.62,399.34c0,3.68.57,6.92,1.72,9.72,1.15,2.8,2.77,5.15,4.88,7.04,2.11,1.89,4.67,3.33,7.68,4.32,3.01.99,6.36,1.48,10.04,1.48s7.03-.48,10.04-1.44c3.01-.96,5.57-2.39,7.68-4.28,2.11-1.89,3.73-4.24,4.88-7.04,1.15-2.8,1.72-6.07,1.72-9.8s-.57-6.97-1.72-9.88c-1.15-2.91-2.77-5.39-4.88-7.44-2.11-2.05-4.67-3.63-7.68-4.72-3.01-1.09-6.36-1.64-10.04-1.64s-7.03.52-10.04,1.56c-3.01,1.04-5.57,2.56-7.68,4.56-2.11,2-3.73,4.47-4.88,7.4-1.15,2.93-1.72,6.32-1.72,10.16Z"/>
  </g>
  <path class="cls-2" d="M-35.81,48.98c68.18,0,68.18,55.81,136.36,55.81s68.18-55.81,136.36-55.81,68.18,55.81,136.36,55.81,68.18-55.81,136.36-55.81,68.18,55.81,136.36,55.81,68.18-55.81,136.36-55.81,68.18,55.81,136.36,55.81,68.18-55.81,136.36-55.81,68.18,55.81,136.36,55.81,68.18-55.81,136.37-55.81,68.18,55.81,136.37,55.81"/>
  <path class="cls-2" d="M-35.81,141.84c68.18,0,68.18,55.81,136.36,55.81s68.18-55.81,136.36-55.81,68.18,55.81,136.36,55.81,68.18-55.81,136.36-55.81,68.18,55.81,136.36,55.81,68.18-55.81,136.36-55.81,68.18,55.81,136.36,55.81,68.18-55.81,136.36-55.81,68.18,55.81,136.36,55.81,68.18-55.81,136.37-55.81,68.18,55.81,136.37,55.81"/>
  <path class="cls-2" d="M1539.19,751.29c-68.75,0-68.75-58.55-137.5-58.55-68.75,0-68.75,58.55-137.5,58.55-68.75,0-68.75-58.55-137.5-58.55-68.75,0-68.75,58.55-137.5,58.55-68.75,0-68.75-58.55-137.49-58.55s-68.75,58.55-137.5,58.55c-68.75,0-68.75-58.55-137.5-58.55-68.75,0-68.75,58.55-137.5,58.55-68.75,0-68.75-58.55-137.5-58.55-68.75,0-68.75,58.55-137.5,58.55-68.75,0-68.75-58.55-137.51-58.55s-68.75,58.55-137.51,58.55"/>
  <path class="cls-2" d="M1539.19,658.43c-68.75,0-68.75-58.55-137.5-58.55-68.75,0-68.75,58.55-137.5,58.55-68.75,0-68.75-58.55-137.5-58.55-68.75,0-68.75,58.55-137.5,58.55-68.75,0-68.75-58.55-137.49-58.55s-68.75,58.55-137.5,58.55c-68.75,0-68.75-58.55-137.5-58.55-68.75,0-68.75,58.55-137.5,58.55-68.75,0-68.75-58.55-137.5-58.55-68.75,0-68.75,58.55-137.5,58.55-68.75,0-68.75-58.55-137.51-58.55s-68.75,58.55-137.51,58.55"/>
</svg>