<?xml version="1.0" encoding="UTF-8"?>
<svg id="_Шар_1" data-name="Шар 1" xmlns="http://www.w3.org/2000/svg" viewBox="0 0 1400 800">
  <defs>
    <style>
      .cls-1 {
        fill: #ffd84d;
      }

      .cls-2 {
        fill: none;
        stroke: #ffd84d;
        stroke-miterlimit: 10;
        stroke-width: 1.75px;
      }
    </style>
  </defs>
  <g>
    <path class="cls-1" d="M491.15,378.23v48.95h-7.84v-55.99h53.59v55.99h-7.84v-48.95h-37.91Z"/>
    <path class="cls-1" d="M610.17,399.1c0,5.17-.8,9.64-2.4,13.4-1.6,3.76-3.84,6.87-6.72,9.32-2.88,2.45-6.32,4.25-10.32,5.4s-8.4,1.72-13.2,1.72-9.2-.63-13.2-1.88c-4-1.25-7.44-3.12-10.32-5.6s-5.12-5.57-6.72-9.28c-1.6-3.71-2.4-8.04-2.4-13s.8-9.5,2.4-13.32c1.6-3.81,3.84-7,6.72-9.56s6.32-4.48,10.32-5.76c4-1.28,8.4-1.92,13.2-1.92s9.2.67,13.2,2c4,1.33,7.44,3.28,10.32,5.84,2.88,2.56,5.12,5.73,6.72,9.52,1.6,3.79,2.4,8.16,2.4,13.12ZM553.22,399.34c0,3.68.57,6.92,1.72,9.72,1.15,2.8,2.77,5.15,4.88,7.04,2.11,1.89,4.67,3.33,7.68,4.32,3.01.99,6.36,1.48,10.04,1.48s7.02-.48,10.04-1.44c3.01-.96,5.57-2.39,7.68-4.28,2.11-1.89,3.73-4.24,4.88-7.04,1.15-2.8,1.72-6.07,1.72-9.8s-.57-6.97-1.72-9.88c-1.15-2.91-2.77-5.39-4.88-7.44-2.11-2.05-4.67-3.63-7.68-4.72-3.01-1.09-6.36-1.64-10.04-1.64s-7.03.52-10.04,1.56c-3.01,1.04-5.57,2.56-7.68,4.56-2.11,2-3.73,4.47-4.88,7.4-1.15,2.93-1.72,6.32-1.72,10.16Z"/>
    <path class="cls-1" d="M677.35,409.34c-1.55,6.72-4.96,11.67-10.24,14.84-5.28,3.17-12.05,4.76-20.32,4.76-5.01,0-9.49-.67-13.44-2-3.95-1.33-7.28-3.24-10-5.72-2.72-2.48-4.8-5.51-6.24-9.08-1.44-3.57-2.16-7.6-2.16-12.08v-1.44c0-4.64.72-8.77,2.16-12.4,1.44-3.63,3.52-6.68,6.24-9.16,2.72-2.48,6.05-4.37,10-5.68,3.95-1.31,8.42-1.96,13.44-1.96,4.26,0,8.14.43,11.64,1.28,3.49.85,6.53,2.15,9.12,3.88,2.59,1.73,4.71,3.91,6.36,6.52,1.65,2.61,2.75,5.68,3.28,9.2h-8.64c-.53-2.08-1.43-3.99-2.68-5.72-1.25-1.73-2.8-3.23-4.64-4.48-1.84-1.25-3.97-2.21-6.4-2.88-2.43-.67-5.11-1-8.04-1-3.89,0-7.31.57-10.24,1.72-2.93,1.15-5.39,2.73-7.36,4.76-1.97,2.03-3.45,4.47-4.44,7.32-.99,2.85-1.48,5.99-1.48,9.4s.49,6.27,1.48,9.04c.99,2.77,2.47,5.17,4.44,7.2,1.97,2.03,4.43,3.61,7.36,4.76,2.93,1.15,6.34,1.72,10.24,1.72,5.92,0,10.81-1.13,14.68-3.4,3.87-2.27,6.33-5.4,7.4-9.4h8.48Z"/>
    <path class="cls-1" d="M744.7,371.19v55.99h-7.76v-48.95h-31.83l-1.76,25.75c-.37,5.17-1.17,9.29-2.4,12.36-1.23,3.07-2.77,5.4-4.64,7-1.87,1.6-4.01,2.64-6.44,3.12-2.43.48-5,.72-7.72.72v-7.36c2.72,0,4.89-.36,6.52-1.08,1.63-.72,2.91-1.76,3.84-3.12.93-1.36,1.59-3.03,1.96-5,.37-1.97.69-4.21.96-6.72l2.48-32.71h46.79Z"/>
    <path class="cls-1" d="M790.77,414.46c-1.71,3.09-3.36,5.57-4.96,7.44-1.6,1.87-3.19,3.31-4.76,4.32-1.57,1.01-3.16,1.68-4.76,2-1.6.32-3.28.48-5.04.48-2.29,0-4.51-.28-6.64-.84-2.13-.56-4.03-1.6-5.68-3.12-1.65-1.52-2.96-3.6-3.92-6.24s-1.44-6.04-1.44-10.2h7.92c0,4.64.77,8.01,2.32,10.12,1.55,2.11,3.84,3.16,6.88,3.16,1.6,0,2.99-.23,4.16-.68,1.17-.45,2.23-1.11,3.16-1.96.93-.85,1.81-1.89,2.64-3.12.83-1.23,1.72-2.64,2.68-4.24h-5.12l-25.51-40.39h9.52l23.19,36.71,20.08-36.71h9.04l-23.76,43.27Z"/>
    <path class="cls-1" d="M829.4,378.23v48.95h-7.84v-55.99h45.51v7.04h-37.67Z"/>
    <path class="cls-1" d="M922.1,376.79l-35.91,50.39h-13.44v-55.99h7.84v50.31l35.91-50.31h13.44v55.99h-7.84v-50.39Z"/>
  </g>
  <path class="cls-2" d="M-35.81,48.98c68.18,0,68.18,55.81,136.36,55.81s68.18-55.81,136.36-55.81,68.18,55.81,136.36,55.81,68.18-55.81,136.36-55.81,68.18,55.81,136.36,55.81,68.18-55.81,136.36-55.81,68.18,55.81,136.36,55.81,68.18-55.81,136.36-55.81,68.18,55.81,136.36,55.81,68.18-55.81,136.37-55.81,68.18,55.81,136.37,55.81"/>
  <path class="cls-2" d="M-35.81,141.84c68.18,0,68.18,55.81,136.36,55.81s68.18-55.81,136.36-55.81,68.18,55.81,136.36,55.81,68.18-55.81,136.36-55.81,68.18,55.81,136.36,55.81,68.18-55.81,136.36-55.81,68.18,55.81,136.36,55.81,68.18-55.81,136.36-55.81,68.18,55.81,136.36,55.81,68.18-55.81,136.37-55.81,68.18,55.81,136.37,55.81"/>
  <path class="cls-2" d="M1539.19,751.29c-68.75,0-68.75-58.55-137.5-58.55-68.75,0-68.75,58.55-137.5,58.55-68.75,0-68.75-58.55-137.5-58.55-68.75,0-68.75,58.55-137.5,58.55-68.75,0-68.75-58.55-137.49-58.55s-68.75,58.55-137.5,58.55c-68.75,0-68.75-58.55-137.5-58.55-68.75,0-68.75,58.55-137.5,58.55-68.75,0-68.75-58.55-137.5-58.55-68.75,0-68.75,58.55-137.5,58.55-68.75,0-68.75-58.55-137.51-58.55s-68.75,58.55-137.51,58.55"/>
  <path class="cls-2" d="M1539.19,658.43c-68.75,0-68.75-58.55-137.5-58.55-68.75,0-68.75,58.55-137.5,58.55-68.75,0-68.75-58.55-137.5-58.55-68.75,0-68.75,58.55-137.5,58.55-68.75,0-68.75-58.55-137.49-58.55s-68.75,58.55-137.5,58.55c-68.75,0-68.75-58.55-137.5-58.55-68.75,0-68.75,58.55-137.5,58.55-68.75,0-68.75-58.55-137.5-58.55-68.75,0-68.75,58.55-137.5,58.55-68.75,0-68.75-58.55-137.51-58.55s-68.75,58.55-137.51,58.55"/>
</svg>