<?xml version="1.0" encoding="UTF-8"?>
<svg id="_Шар_1" data-name="Шар 1" xmlns="http://www.w3.org/2000/svg" viewBox="0 0 872.83 669.02">
  <defs>
    <style>
      .cls-1 {
        fill: #906755;
      }

      .cls-2 {
        fill: #ecddc7;
      }

      .cls-3 {
        stroke-miterlimit: 10;
        stroke-width: 1.58px;
      }

      .cls-3, .cls-4 {
        fill: none;
        stroke: #906755;
        stroke-linecap: round;
      }

      .cls-4 {
        stroke-linejoin: round;
        stroke-width: 3.76px;
      }
    </style>
  </defs>
  <rect class="cls-2" x="80.88" y="-112.61" width="712.4" height="894.24" transform="translate(771.59 -102.56) rotate(90)"/>
  <g>
    <path class="cls-4" d="M453.52,465.46s1.01,3.27.5,6.16"/>
    <path class="cls-1" d="M492.74,435.25l-.85,27.53v109.66l-37.36,1.07-6.31-3.85-2.53-5.66c6.67-3.03,2.47-29.44,1.03-30.74-1.93-1.73-4.47-3.62-6.48-3.94-2.01-.3-5.5-1.62-5.95-2.01-.47-.38-1.56-.85-1.56-1.84,0-.62.08-1.93.13-2.87.04-.56.43-1.01.96-1.18.54-.15,1.28-.54,2.01-1.52.79-1.03,1.63-1.78,2.1-2.85v.41s1.28.54,1.5.24c.24-.32.88-4.23.69-4.68-.06-.13-.17-.26-.32-.38,0-3.06-1.75-5.63-2.31-6.37-.92-1.22-3.96-2.97-7.81-3.01h-.11c-3.83,0-6.12,1.92-7.64,3.17-1.35,1.11-1.73,4.04-1.84,5.47-.19.11-.32.23-.39.32-.04.06-.06.23-.06.47,0,1.13.43,3.93.92,4.3.39.3.83.23,1.05.13l3.57,6.14c.09.86.08,1.75-.08,1.84-.28.21-1.15,1.62-2.18,1.78-.85.13-5.5.94-7.81,1.6-.49.13-.86.26-1.09.38-1.28.66-2.03,1.62-2.48,2.93-.45,1.31-2.67,14.07-2.67,14.97s.09,14.59.85,15.4c.75.81,2.8,2.74,3.98,2.74.56.06-1.3,6.1-1.71,7.46l-25.47.94-5.82-3.23.66-16.77v-120.63l31.81-1.07,7.1,1.71,26.99,49.56c2.2,3.85,4.04,7.89,5.54,12.08l9.62,23.94,1.3-.21-5.6-32.04,3.13-24.41-4.63-28.7,28.81-1.93,7.31,3.64Z"/>
  </g>
  <path class="cls-1" d="M252.53,180.75c-3.31-2.97-7.67-6.22-11.11-6.75-3.44-.53-9.39-2.78-10.18-3.44-.79-.66-2.65-1.45-2.65-3.17,0-1.04.12-3.29.21-4.92.05-.96.73-1.73,1.65-2,.93-.27,2.17-.95,3.43-2.61,1.36-1.79,2.79-3.07,3.61-4.9l-.02.72s2.21.91,2.6.39c.39-.52,1.49-7.2,1.17-7.98-.09-.22-.28-.45-.53-.65,0-5.25-3-9.63-3.96-10.9-1.58-2.09-6.78-5.06-13.36-5.13-.07,0-.14,0-.21,0-6.55,0-10.48,3.26-13.08,5.42-2.3,1.91-2.95,6.9-3.13,9.35-.32.19-.58.38-.7.54-.39.52.45,7.4,1.49,8.18.69.51,1.4.38,1.81.23.2-.08.34-.27.35-.48l.16-.67c1.45,4.36,3.72,8.66,4.64,8.66s1.33,5.8.84,6.15c-.49.35-1.98,2.75-3.74,3.03-1.76.28-13.05,2.26-15.24,3.39-2.19,1.13-3.46,2.75-4.23,5.01-.78,2.26-4.56,24.07-4.56,25.62s.15,24.96,1.43,26.35c1.28,1.39,4.8,4.69,6.83,4.69,1.07.11-3.09,13.23-3.09,13.23l56.64-.54s-6.54-12.16-5.22-12.03c1.32.13,7.9-4.59,8.72-6.97,4.77-13.94,1.93-45.6-.55-47.83ZM220.65,132.21c-4.36.93-8.6,4.76-9.66,7.41-.57,1.42-1.05,2.53-1.33,4.84l-.29-.75c-.11-.06-.24-.09-.38-.11.25-2.51.91-6.04,2.35-7.23,2.53-2.1,5.99-4.96,11.82-4.96.06,0,.13,0,.19,0,5.85.06,10.51,2.63,11.81,4.35.83,1.09,3.33,4.74,3.54,9.12-.31.02-.64.07-.98.2l-.02.74c-1.23-5.99-1.98-8.77-5.54-10.68-3.7-1.98-7.14-3.84-11.51-2.91Z"/>
  <path class="cls-1" d="M491.35,209.55c-6.97-15.8-16.37-21.61-19.89-25.63,5.67-4.74,17.66-6.18,19.89-6.03,2.23.14,8.9,3.59,7.61,1.8-1.29-1.8-4.81-5.74-5.46-6.25-.65-.5-.37-3.22-2.84-7.2-2.47-3.98-12.7-5.5-15.36-5.12s-18.77-.95-19.34-.95-6.64-3.6-8.15-13.27c-1.52-9.67-3.22-9.86-18.01-21.43-14.79-11.57-40.77-19.53-38.49-11.38,15.17,11,26.36,49.87,26.36,53.09s-10.24,7.58-13.46,8.91c-3.22,1.33-24.08,1.9-24.08,1.9-3.1,3.45-6.03,10.99,4.1,14.98,10.13,3.99,19.43-1.49,21.92-2.32,2.49-.83,23.41,5.15,30.72,1.49,7.31-3.65,54.79,86.67,60.11,73.31,5.31-13.37,1.36-40.1-5.61-55.9ZM483.64,166.76c1.24,0,2.24.94,2.24,2.11s-1,2.11-2.24,2.11-2.24-.94-2.24-2.11,1-2.11,2.24-2.11Z"/>
  <path class="cls-1" d="M624.84,236.33l-3.9-2.17.43-11.27v-81.08l21.39-.72,4.77,1.16,20.96,37,7.37,20.52.87-.15-3.76-21.54v-14.89l-1.01-20.81,19.37-1.3,4.91,2.46-.58,18.5v73.71l-21.54.72-4.34-1.16-21.68-37.29-6.79-19.22-.72.15,3.47,20.38v21.24l.58,15.03-19.8.72Z"/>
  <g>
    <line class="cls-3" x1="318.26" y1="174.2" x2="318.26" y2="212.94"/>
    <line class="cls-3" x1="337.63" y1="193.57" x2="298.89" y2="193.57"/>
  </g>
  <g>
    <line class="cls-3" x1="557.24" y1="174.2" x2="557.24" y2="212.94"/>
    <line class="cls-3" x1="576.61" y1="193.57" x2="537.87" y2="193.57"/>
  </g>
  <g>
    <line class="cls-3" x1="479.94" y1="324.97" x2="393.52" y2="324.97"/>
    <line class="cls-3" x1="479.94" y1="342.46" x2="393.52" y2="342.46"/>
  </g>
</svg>