<?xml version="1.0" encoding="UTF-8"?>
<svg id="_Шар_1" data-name="Шар 1" xmlns="http://www.w3.org/2000/svg" viewBox="0 0 872.83 669.02">
  <defs>
    <style>
      .cls-1 {
        fill: #906755;
      }

      .cls-2 {
        fill: #ecddc7;
      }

      .cls-3 {
        fill: none;
        stroke: #906755;
        stroke-linecap: round;
        stroke-linejoin: round;
        stroke-width: 3.61px;
      }
    </style>
  </defs>
  <rect class="cls-2" x="96.12" y="-110.94" width="685.67" height="893.57" transform="translate(774.8 -103.12) rotate(90)"/>
  <g>
    <g>
      <path class="cls-3" d="M299.63,300.28s.97,3.14.48,5.91"/>
      <path class="cls-1" d="M337.29,271.27l-.81,26.44v105.32l-35.88,1.03-6.06-3.7-2.43-5.43c6.41-2.91,2.38-28.28.99-29.52-1.86-1.66-4.29-3.48-6.22-3.79-1.93-.29-5.28-1.55-5.72-1.93-.45-.36-1.5-.81-1.5-1.77,0-.6.07-1.86.13-2.76.04-.54.41-.97.92-1.14.52-.14,1.23-.52,1.93-1.46.76-.99,1.57-1.71,2.02-2.74v.4s1.23.52,1.44.23c.23-.31.85-4.06.67-4.49-.05-.13-.16-.25-.31-.36,0-2.94-1.68-5.41-2.22-6.11-.88-1.17-3.81-2.85-7.5-2.89h-.11c-3.68,0-5.88,1.84-7.34,3.05-1.3,1.06-1.66,3.88-1.77,5.25-.18.11-.31.22-.38.31-.04.05-.05.22-.05.45,0,1.08.41,3.77.88,4.13.38.29.79.22,1.01.13l3.43,5.9c.09.83.07,1.68-.07,1.77-.27.2-1.1,1.55-2.09,1.71-.81.13-5.28.9-7.5,1.53-.47.13-.83.25-1.05.36-1.23.63-1.95,1.55-2.38,2.81-.43,1.26-2.56,13.51-2.56,14.38s.09,14.01.81,14.79c.72.78,2.69,2.63,3.82,2.63.54.05-1.24,5.86-1.64,7.16l-24.46.9-5.59-3.1.63-16.11v-115.85l30.55-1.03,6.82,1.64,25.92,47.6c2.11,3.7,3.88,7.58,5.32,11.6l9.23,23,1.24-.2-5.37-30.77,3-23.44-4.44-27.57,27.67-1.86,7.02,3.5Z"/>
    </g>
    <polygon class="cls-1" points="420.9 371.83 389.92 369.96 389.92 356.45 409.46 356.45 422.77 357.07 425.26 349.79 423.39 323.18 411.12 323.81 389.92 323.81 389.92 300.73 418.19 301.56 431.5 302.81 434.2 295.32 432.33 267.88 420.06 268.5 359.98 268.5 348.75 271.41 350 291.58 350 377.65 349.17 401.98 352.91 403.64 419.23 403.64 432.33 404.05 435.03 396.57 433.16 371.21 420.9 371.83"/>
    <path class="cls-1" d="M522.14,333.58c-9.35-8.32-21.62-12.68-30.77-19.54-4.78-3.74-5.82-6.03-5.82-8.52s.21-3.95,1.04-5.41c3.53-1.25,6.44-1.25,9.98-1.25,7.69,0,18.71,2.49,25.99,5.82l4.37-2.29,2.49-31.81c-13.51-3.95-27.03-5.61-37.01-5.61-14.76,0-28.48,2.29-37.42,6.86-4.36,6.86-8.11,20.37-8.11,31.6s1.66,22.66,10.19,31.81c8.52,8.94,20.17,13.51,29.94,20.79,3.53,2.5,5.61,4.57,5.61,9.15,0,1.66-.21,3.33-1.25,5.61-3.12.62-5.82.83-7.28.83-9.56,0-23.7-4.78-31.81-8.94l-4.78,3.53-1.46,30.15c12.89,5.2,26.61,7.69,42.62,7.69,12.47,0,25.36-2.08,36.38-8.52,4.58-7.07,8.11-19.13,8.11-32.22,0-14.14-3.53-23.08-11.02-29.73Z"/>
    <polygon class="cls-1" points="631.07 268.09 554.15 268.09 541.67 267.05 543.54 304.26 554.35 302.39 572.44 302.39 572.44 377.24 570.57 402.39 575.35 404.05 614.23 402.39 612.36 375.78 612.36 302.39 631.07 302.39 641.26 304.26 643.13 267.05 631.07 268.09"/>
  </g>
</svg>